<!-- Generated by IcoMoon.io -->
<svg version="1.1" xmlns="http://www.w3.org/2000/svg" width="1024" height="1024" viewBox="0 0 1024 1024">
<title>uncheck</title>
<g id="icomoon-ignore">
</g>
<path fill="#000" d="M733.485 287.32c10.522-9.243 24.518-14.353 39.040-14.252s28.435 5.406 38.797 14.796c10.368 9.389 16.378 22.128 16.762 35.529s-4.89 26.415-14.701 36.296l-297.921 343.927c-5.123 5.094-11.306 9.178-18.179 12.019-6.874 2.835-14.296 4.365-21.824 4.493s-15.007-1.146-21.989-3.744c-6.982-2.605-13.325-6.477-18.648-11.392l-197.568-182.369c-5.502-4.732-9.915-10.439-12.975-16.78s-4.707-13.186-4.839-20.127c-0.133-6.941 1.25-13.835 4.067-20.271s7.009-12.284 12.326-17.192c5.318-4.909 11.652-8.778 18.625-11.379s14.442-3.876 21.962-3.754c7.519 0.122 14.934 1.642 21.804 4.467s13.052 6.899 18.179 11.978l156.352 144.256 259.318-304.984c0.467-0.531 0.966-1.037 1.491-1.517h-0.077z"></path>
<path fill="none" stroke-linejoin="miter" stroke-linecap="butt" stroke-miterlimit="4" stroke-width="64" stroke="#000" d="M128 32h768c53.019 0 96 42.981 96 96v768c0 53.019-42.981 96-96 96h-768c-53.019 0-96-42.981-96-96v-768c0-53.019 42.981-96 96-96z"></path>
</svg>
